<?xml version="1.0" encoding="utf-8"?>
<!-- Generator: Adobe Illustrator 23.0.2, SVG Export Plug-In . SVG Version: 6.00 Build 0)  -->
<svg version="1.1" id="Layer_1" xmlns="http://www.w3.org/2000/svg" xmlns:xlink="http://www.w3.org/1999/xlink" x="0px" y="0px"
	 viewBox="0 0 515.5 360.9" style="enable-background:new 0 0 515.5 360.9;" xml:space="preserve">
<style type="text/css">
	.st0{fill:#F0EFEF;}
	.st1{fill:#00B4D8;}
	.st2{fill:#6C7CBD;}
</style>
<title>bg2</title>
<g>
	<path class="st0" d="M49.5,190.9c-7.7-51.5-25-56-38.3-82c-12.1-23.6-21.8-62.3,12.3-90c53-43,118,1,118,1s103,59,121,62
		s62,33,117-3s102-33,117-6s-19,105-27,121s4,66,17,86s54,82-34,80s-352,1-352,1s-94.8-1.8-78-94C36.5,189.9,52.5,210.9,49.5,190.9z
		"/>
	<circle class="st1" cx="83.5" cy="163.9" r="20"/>
	<circle class="st1" cx="50" cy="188.4" r="13.5"/>
	<circle class="st1" cx="52" cy="157.4" r="7.5"/>
	<ellipse transform="matrix(0.1602 -0.9871 0.9871 0.1602 121.1119 740.07)" class="st1" cx="495.5" cy="298.9" rx="20" ry="20"/>
	<circle class="st1" cx="36.5" cy="77.4" r="7.5"/>
	<circle class="st2" cx="140" cy="297.4" r="35.5"/>
	<circle class="st2" cx="374.5" cy="325.9" r="24"/>
	<circle class="st2" cx="466.5" cy="201.9" r="13"/>
	<circle class="st2" cx="356.5" cy="103.4" r="26"/>
	<circle class="st2" cx="131" cy="15.4" r="12.5"/>
	<circle class="st2" cx="91" cy="264.4" r="12.5"/>
	<circle class="st1" cx="494" cy="119.4" r="12.5"/>
	<circle class="st1" cx="474" cy="331.4" r="13.5"/>
	<circle class="st1" cx="504" cy="338.4" r="7.5"/>
</g>
</svg>
